{"title":"Management 2008 DVDRip Xvid AC3 BigPerm LKRG","uid":6736853,"size":878241579,"categoryP":"video","categoryS":"movies","magnet":"?xt=urn:btih:08ca43c8ebbaf9ec6c2be54b9c05815ec56a441c&amp;dn=Management+2008+DVDRip+Xvid+AC3+BigPerm+LKRG&amp;tr=udp%3A%2F%2Ftracker.openbittorrent.com%3A80&amp;tr=udp%3A%2F%2Fopen.demonii.com%3A1337&amp;tr=udp%3A%2F%2Ftracker.coppersurfer.tk%3A6969&amp;tr=udp%3A%2F%2Fexodus.desync.com%3A6969","seeders":6,"leechers":3,"uploader":".BONE.","files":3,"time":1318359429,"description":"PLOT\n\nA traveling art saleswoman tries to shake off a flaky motel manager who falls for her\nand won't leave her alone.\n &lt;a href=&quot;\nhttp://www.imdb.com/title/tt1082853/&quot; rel=&quot;nofollow&quot; target=&quot;_NEW&quot;&gt;\nhttp://www.imdb.com/title/tt1082853/&lt;/a&gt;\n\n\nEncoded By .......: BP-LKRG\nRuntime ..........: 1h 33mn\nFile Size ........: 838 MiB\nResolution .......: 704 x 396\nIMDb URL .........: http://www.imdb.com/title/tt1082853/\nGenre ............: Comedy,Drama,Romance\nLanguage .........: English\nSubtitles ........: None\nVideo\nID : 0\nFormat : MPEG-4 Visual\nFormat profile : Advanced Simple@L5\nFormat settings, BVOP : Yes\nFormat settings, QPel : No\nFormat settings, GMC : No warppoints\nFormat settings, Matrix : Default (H.263)\nCodec ID : XVID\nCodec ID/Hint : XviD\nDuration : 1h 33mn\nBit rate : 800 Kbps\nWidth : 704 pixels\nHeight : 396 pixels\nDisplay aspect ratio : 16:9\nFrame rate : 23.976 fps\nColor space : YUV\nChroma subsampling : 4:2:0\nBit depth : 8 bits\nScan type : Progressive\nCompression mode : Lossy\nBits/(Pixel*Frame) : 0.120\nStream size : 535 MiB (64%)\nWriting library : XviD 1.2.1 (UTC 2008-12-04)\nAudio\nID : 1\nFormat : AC-3\nFormat/Info : Audio Coding 3\nMode extension : CM (complete main)\nCodec ID : 2000\nDuration : 1h 33mn\nBit rate mode : Constant\nBit rate : 448 Kbps\nChannel(s) : 6 channels\nChannel positions : Front: L C R, Side: L R, LFE\nSampling rate : 48.0 KHz\nBit depth : 16 bits\nCompression mode : Lossy\nVideo delay : 42ms\nStream size : 300 MiB (36%)\nAlignment : Split accross interleaves\nInterleave, duration : 500 ms (11.99 video frames)\nInterleave, preload duration : 500 ms\n\n","torrent":{"xt":"urn:btih:08ca43c8ebbaf9ec6c2be54b9c05815ec56a441c","amp;dn":"Management+2008+DVDRip+Xvid+AC3+BigPerm+LKRG","amp;tr":["udp%3A%2F%2Ftracker.openbittorrent.com%3A80","udp%3A%2F%2Fopen.demonii.com%3A1337","udp%3A%2F%2Ftracker.coppersurfer.tk%3A6969","udp%3A%2F%2Fexodus.desync.com%3A6969"],"infoHash":"08ca43c8ebbaf9ec6c2be54b9c05815ec56a441c","infoHashBuffer":{"type":"Buffer","data":[8,202,67,200,235,186,249,236,108,43,229,75,156,5,129,94,197,106,68,28]},"announce":[],"urlList":[]}}